<?xml version="1.0" encoding="UTF-8" standalone="no"?>
<!-- Created with Inkscape (http://www.inkscape.org/) -->

<svg
   xmlns:dc="http://purl.org/dc/elements/1.1/"
   xmlns:cc="http://creativecommons.org/ns#"
   xmlns:rdf="http://www.w3.org/1999/02/22-rdf-syntax-ns#"
   xmlns:svg="http://www.w3.org/2000/svg"
   xmlns="http://www.w3.org/2000/svg"
   xmlns:sodipodi="http://sodipodi.sourceforge.net/DTD/sodipodi-0.dtd"
   xmlns:inkscape="http://www.inkscape.org/namespaces/inkscape"
   width="81.467796"
   height="94.869919"
   id="svg2"
   version="1.1"
   inkscape:version="0.48.5 r10040"
   sodipodi:docname="Basaka_logo_v2.svg">
  <defs
     id="defs4" />
  <sodipodi:namedview
     id="base"
     pagecolor="#ffffff"
     bordercolor="#666666"
     borderopacity="1.0"
     inkscape:pageopacity="0.0"
     inkscape:pageshadow="2"
     inkscape:zoom="0.78720872"
     inkscape:cx="111.3381"
     inkscape:cy="-35.640767"
     inkscape:document-units="px"
     inkscape:current-layer="layer1"
     showgrid="false"
     inkscape:window-width="1276"
     inkscape:window-height="756"
     inkscape:window-x="4"
     inkscape:window-y="0"
     inkscape:window-maximized="1"
     fit-margin-top="0"
     fit-margin-left="0"
     fit-margin-right="0"
     fit-margin-bottom="0" />
  <metadata
     id="metadata7">
    <rdf:RDF>
      <cc:Work
         rdf:about="">
        <dc:format>image/svg+xml</dc:format>
        <dc:type
           rdf:resource="http://purl.org/dc/dcmitype/StillImage" />
        <dc:title></dc:title>
      </cc:Work>
    </rdf:RDF>
  </metadata>
  <g
     inkscape:label="Layer 1"
     inkscape:groupmode="layer"
     id="layer1"
     transform="translate(-1166.8496,935.60754)">
    <path
       style="font-size:153.95133971999999289px;font-style:normal;font-variant:normal;font-weight:500;font-stretch:normal;line-height:125%;letter-spacing:0px;word-spacing:0px;fill:#ffffff;fill-opacity:1;stroke:none;font-family:Keep Calm;-inkscape-font-specification:Keep Calm Medium"
       d="m 1205.2742,-935.60635 c -5.337,-0.063 -11.2371,3.24373 -15.7692,8.37932 0,0.006 0,0.0121 0,0.0182 -0.9886,0.62341 -1.9372,1.39005 -2.8512,2.28882 0.4122,-0.12062 0.8195,-0.21699 1.2413,-0.29094 0.588,-0.10365 1.1935,-0.16305 1.8039,-0.17457 0.6425,-0.0121 1.2935,0.0364 1.959,0.13578 0,0.004 0.061,-0.004 0.061,0 l 19.7267,2.0754 c 2.5494,0.26912 4.8448,1.73057 6.8274,3.80173 1.9827,2.07116 3.7023,4.78118 5.1401,7.79742 2.8749,6.03249 4.6163,13.26118 4.6163,18.98926 l 0,36.7371 c 0,5.73015 -1.7905,10.81325 -4.8103,14.33409 -0.091,0.10668 -0.1758,0.2067 -0.2728,0.31034 4.8212,-1.65632 8.6071,-7.08273 10.0861,-13.53878 2.0596,-0.19821 3.949,-1.23312 5.7025,-3.12286 1.9609,-2.20087 3.6598,-5.09971 5.0824,-8.70905 1.422,-3.69748 2.5282,-7.95987 3.2974,-12.80179 0.8074,-4.84185 1.2026,-9.97259 1.2026,-15.3427 0,-5.7222 -0.4546,-11.00502 -1.3772,-15.847 -0.8843,-4.92987 -2.0893,-9.19226 -3.5883,-12.80172 -1.4995,-3.60929 -3.1985,-6.41266 -5.1206,-8.43751 -1.9226,-2.1128 -3.898,-3.18093 -5.9359,-3.18105 -5.4836,0.59704 -8.3434,4.85562 -11.017,9.19396 -0.9929,-0.55946 -2.0282,-0.92332 -3.0841,-1.028 l -1.6292,-0.15517 c -2.5379,-6.03212 -6.6893,-8.57758 -11.2693,-8.63147 z m 2.0948,2.38581 c 2.6688,-0.0764 5.054,2.39483 7.0409,6.0323 l -13.2283,-1.31895 c 2.1748,-3.25621 4.252,-4.65783 6.1874,-4.71335 z m 28.1252,6.63365 c 1.9875,0.0842 3.6041,3.35398 5.7995,9.40731 6.0613,17.60503 3.5077,49.88444 -6.5171,52.79752 -0.3819,-0.0121 -0.7353,0.0364 -1.0862,0.11638 l 0,-33.12939 c 0,-6.1645 -2.1591,-14.41919 -5.5862,-20.61855 3.2992,-5.89144 5.5207,-8.65231 7.39,-8.57327 z m -45.7952,3.51072 c -2.4767,0.0424 -4.7381,1.07837 -6.8663,2.9095 -5.4122,8.31222 -9.1447,21.10758 -11.3668,32.41173 1.8178,-1.34992 4.0471,-2.03036 6.4202,-1.55176 l 23.7998,4.81034 c 5.9559,1.20105 10.9977,4.78669 10.9977,10.74572 l 0,20.46337 c 0,4.39478 -2.7337,8.80452 -6.556,10.3384 l 12.0451,2.13365 c 0.2304,0.0424 0.4546,0.0546 0.6789,0.0776 0.908,-0.61444 1.7711,-1.37132 2.5415,-2.26937 2.5906,-3.02133 4.2478,-7.58958 4.2478,-12.84058 l 0,-36.73709 c 0,-5.253 -1.6826,-12.29142 -4.4029,-18.00005 -1.3608,-2.85429 -2.975,-5.37944 -4.7139,-7.19614 -1.7384,-1.81665 -3.555,-2.89641 -5.334,-3.08401 l -19.7842,-2.07546 a 1.187001,1.1633202 0 0 1 -0.061,-0.0182 c -0.5516,-0.0849 -1.1141,-0.12486 -1.6487,-0.11638 z m -1.7457,12.7436 c 0.5819,-0.0121 1.1971,0.0303 1.8233,0.11638 l 13.364,1.84264 c 3.338,0.46248 6.1141,1.41369 6.0323,2.67675 l -0.291,4.32543 c -0.085,1.26306 -2.9852,2.3635 -6.3232,1.90084 l -13.364,-1.84265 c -3.338,-0.46248 -6.1141,-1.41362 -6.0329,-2.67675 l 0.2728,-4.32543 c 0.067,-1.02618 2.0063,-1.95793 4.5193,-2.01721 z m -12.4142,23.17892 c -4.8521,0.0733 -8.6895,5.24099 -8.6895,10.37713 l 0,19.45477 c 0,5.66759 4.6708,9.09922 10.2218,10.24141 l 22.2094,4.55819 c 5.5509,1.14232 10.2412,-4.55449 10.2412,-10.22202 l 0,-19.45477 c 0,-5.66747 -4.6903,-9.0991 -10.2412,-10.24136 l -22.2094,-4.55818 c -0.5213,-0.10729 -1.0298,-0.16305 -1.5323,-0.15517 z"
       id="path3925"
       inkscape:export-filename="/Users/dmasley/Google Drive/~Projects/Basaka/Images/Basaka_logo_v5_w.png"
       inkscape:export-xdpi="90"
       inkscape:export-ydpi="90"
       inkscape:connector-curvature="0" />
  </g>
</svg>
