<?xml version="1.0" encoding="UTF-8"?>
<svg width="66px" height="77px" viewBox="0 0 66 77" version="1.1" xmlns="http://www.w3.org/2000/svg" xmlns:xlink="http://www.w3.org/1999/xlink">
    <!-- Generator: Sketch 45 (43475) - http://www.bohemiancoding.com/sketch -->
    <title>path3925</title>
    <desc>Created with Sketch.</desc>
    <defs></defs>
    <g id="Page-1" stroke="none" stroke-width="1" fill="none" fill-rule="evenodd">
        <path d="M31.0357,0.00071 C26.7247,-0.04999 21.9593,2.62068 18.2987,6.76872 C18.2887,6.77372 18.2877,6.77892 18.2827,6.78432 C17.484,7.28787 16.7177,7.90707 15.9797,8.63299 C16.3108,8.53569 16.6418,8.45788 16.9824,8.39799 C17.4584,8.31429 17.9462,8.26639 18.4393,8.25699 C18.9584,8.24699 19.484,8.28689 20.0217,8.36666 C20.0377,8.36966 20.0527,8.36366 20.0687,8.36666 L36.0018,10.04299 C38.0608,10.2602 39.9152,11.44078 41.5164,13.11366 C43.1178,14.78655 44.507,16.97544 45.6681,19.41167 C47.9903,24.28415 49.3968,30.12279 49.3968,34.74936 L49.3968,64.42208 C49.3968,69.05031 47.9503,73.15598 45.5114,75.99976 C45.4374,76.08576 45.3678,76.16676 45.2921,76.25043 C49.186,74.91261 52.2443,70.52968 53.4388,65.31508 C55.1024,65.15477 56.6284,64.31908 58.0448,62.79274 C59.6283,61.01511 61.0006,58.67371 62.1495,55.7584 C63.2983,52.77195 64.1918,49.32919 64.8128,45.41838 C65.4649,41.50757 65.7841,37.36347 65.7842,33.02603 C65.7841,28.40418 65.4171,24.1372 64.6718,20.22634 C63.9577,16.24445 62.9844,12.80168 61.7735,9.88633 C60.5624,6.97107 59.19,4.70682 57.6375,3.07131 C56.0849,1.36482 54.4892,0.50208 52.8434,0.50198 C48.4139,0.98404 46.1042,4.42387 43.9448,7.92799 C43.1427,7.47602 42.3067,7.18221 41.4538,7.09765 L40.1378,6.97232 C38.0881,2.10017 34.7348,0.04415 31.0354,0.00064 L31.0357,0.00071 Z M32.7277,1.92771 C34.8834,1.86591 36.8099,3.86203 38.4147,6.80005 L27.73,5.73472 C29.4865,3.10464 31.1646,1.97256 32.7277,1.92771 L32.7277,1.92771 Z M55.4444,7.28572 C57.0497,7.35362 58.3555,9.99478 60.1287,14.88407 C65.0246,29.10371 62.9621,55.17594 54.8647,57.5288 C54.5551,57.5177 54.2711,57.5596 53.9874,57.6228 L53.9874,30.86409 C53.9874,25.88502 52.2437,19.21767 49.4754,14.2104 C52.1404,9.45186 53.9348,7.22192 55.4444,7.28572 L55.4444,7.28572 Z M18.4553,10.12139 C16.4552,10.15349 14.6284,10.99237 12.9093,12.47139 C8.5382,19.18518 5.5233,29.52003 3.7286,38.65044 C5.1967,37.56013 6.9974,37.01054 8.9143,37.3971 L28.1373,41.28244 C32.9477,42.25252 37.0203,45.14868 37.0204,49.96179 L37.0204,66.49015 C37.0204,70.03981 34.8123,73.60156 31.725,74.84049 L41.454,76.56383 C41.6376,76.59633 41.8207,76.60733 42.0023,76.62653 C42.7357,76.13021 43.4326,75.51888 44.0547,74.79352 C46.1476,72.35321 47.4857,68.66339 47.4857,64.42217 L47.4857,34.74946 C47.4857,30.50658 46.1269,24.82166 43.9294,20.21077 C42.8306,17.90533 41.5269,15.86575 40.1223,14.39843 C38.7178,12.93111 37.2506,12.05897 35.814,11.90742 L19.834,10.23109 C19.8181986,10.2262883 19.8025267,10.2210865 19.787,10.21549 C19.339,10.14679 18.8874,10.11455 18.4553,10.12149 L18.4553,10.12139 Z M17.0453,20.41441 C17.5137,20.40341 18.0124,20.43841 18.518,20.50841 L29.3124,21.99674 C32.0084,22.37039 34.2506,23.13858 34.1847,24.15875 L33.9497,27.65242 C33.8837,28.67258 31.5383,29.5614 28.8423,29.18775 L18.048,27.69942 C15.352,27.32582 13.1098,26.55763 13.1756,25.53742 L13.395,22.04374 C13.449,21.21486 15.0156,20.46228 17.0453,20.41441 Z M7.0186,39.1361 C3.0995,39.1955 0,43.36928 0,47.51778 L0,63.23147 C0,67.80918 3.7726,70.58091 8.2563,71.50349 L26.1947,75.18516 C30.6784,76.10779 34.4667,71.50648 34.4667,66.92881 L34.4667,51.21512 C34.4667,46.63747 30.6784,43.86573 26.1947,42.94311 L8.2563,39.26144 C7.836,39.17494 7.4241,39.12996 7.0186,39.1361 L7.0186,39.1361 Z" id="path3925" fill="#FFFFFF" fill-rule="nonzero"></path>
    </g>
</svg>